HIERARCHY
ROOT Hips
{
  OFFSET 37.4891 98.9023 4.43251
  CHANNELS 6 Xposition Yposition Zposition Zrotation Xrotation Yrotation
  JOINT spine
  {
    OFFSET 0 8.30104 0.477351
    CHANNELS 3 Zrotation Xrotation Yrotation
    JOINT spine1
    {
      OFFSET 0 10.4565 0
      CHANNELS 3 Zrotation Xrotation Yrotation
      JOINT spine2
      {
        OFFSET 0 10.0192 0
        CHANNELS 3 Zrotation Xrotation Yrotation
        JOINT Neck
        {
          OFFSET 0 25.7235 1.22641
          CHANNELS 3 Zrotation Xrotation Yrotation
          JOINT Head
          {
            OFFSET 0 7.77175 0
            CHANNELS 3 Zrotation Xrotation Yrotation
            End Site
            {
              OFFSET 0 18.812 -6.20394
            }
          }
        }
        JOINT RightShoulder
        {
          OFFSET -4.2188 10.82 -0.587439
          CHANNELS 3 Zrotation Xrotation Yrotation
          JOINT RightArm
          {
            OFFSET 0 14.1914 0
            CHANNELS 3 Zrotation Xrotation Yrotation
            JOINT RightArmRoll
            {
              OFFSET 0 7.16408 0
              CHANNELS 3 Zrotation Xrotation Yrotation
              JOINT RightForeArm
              {
                OFFSET 0 20.8665 0
                CHANNELS 3 Zrotation Xrotation Yrotation
                JOINT RightForeArmRoll
                {
                  OFFSET 0 8.03921 0
                  CHANNELS 3 Zrotation Xrotation Yrotation
                  JOINT RightHand
                  {
                    OFFSET 0 16.133 0
                    CHANNELS 3 Zrotation Xrotation Yrotation
                    End Site
                    {
                      OFFSET 0 0 0
                    }
                  }
                }
              }
            }
          }
        }
        JOINT LeftShoulder
        {
          OFFSET 4.2188 10.82 -0.587439
          CHANNELS 3 Zrotation Xrotation Yrotation
          JOINT LeftArm
          {
            OFFSET 0 14.1914 0
            CHANNELS 3 Zrotation Xrotation Yrotation
            JOINT LeftArmRoll
            {
              OFFSET 0 7.16408 0
              CHANNELS 3 Zrotation Xrotation Yrotation
              JOINT LeftForeArm
              {
                OFFSET 0 20.8665 0
                CHANNELS 3 Zrotation Xrotation Yrotation
                JOINT LeftForeArmRoll
                {
                  OFFSET 0 8.03921 0
                  CHANNELS 3 Zrotation Xrotation Yrotation
                  JOINT LeftHand
                  {
                    OFFSET 0 16.133 0
                    CHANNELS 3 Zrotation Xrotation Yrotation
                    End Site
                    {
                      OFFSET 0 0 0
                    }
                  }
                }
              }
            }
          }
        }
      }
    }
  }
  JOINT RightUpLeg
  {
    OFFSET -7.35773 -1.34921 -1.13182
    CHANNELS 3 Zrotation Xrotation Yrotation
    JOINT RightUpLegRoll
    {
      OFFSET 0 18.9168 0
      CHANNELS 3 Zrotation Xrotation Yrotation
      JOINT RightLeg
      {
        OFFSET 0 -23.4256 0
        CHANNELS 3 Zrotation Xrotation Yrotation
        JOINT RightLegRoll
        {
          OFFSET 0 23.5023 0
          CHANNELS 3 Zrotation Xrotation Yrotation
          JOINT RightFoot
          {
            OFFSET 0 19.5617 0
            CHANNELS 3 Zrotation Xrotation Yrotation
            JOINT RightToeBase
            {
              OFFSET 0 16.3526 0
              CHANNELS 3 Zrotation Xrotation Yrotation
              End Site
              {
                OFFSET 0.00693125 7.91944 -0.912837
              }
            }
          }
        }
      }
    }
  }
  JOINT LeftUpLeg
  {
    OFFSET 7.35773 -1.34921 -1.13182
    CHANNELS 3 Zrotation Xrotation Yrotation
    JOINT LeftUpLegRoll
    {
      OFFSET 0 18.9169 0
      CHANNELS 3 Zrotation Xrotation Yrotation
      JOINT LeftLeg
      {
        OFFSET 0 23.4255 0
        CHANNELS 3 Zrotation Xrotation Yrotation
        JOINT LeftLegRoll
        {
          OFFSET 0 23.7195 0
          CHANNELS 3 Zrotation Xrotation Yrotation
          JOINT LeftFoot
          {
            OFFSET 0 19.3444 0
            CHANNELS 3 Zrotation Xrotation Yrotation
            JOINT LeftToeBase
            {
              OFFSET 0 16.3526 0
              CHANNELS 3 Zrotation Xrotation Yrotation
              End Site
              {
                OFFSET -0.0310629 7.91944 -0.912836
              }
            }
          }
        }
      }
    }
  }
}
MOTION
Frames: 5
Frame Time: 0.00208333
37.0841 98.7441 3.57004 0.699576 -4.76209 0.74413 -0.128494 -1.27621 0.0712861 -0.247512 1.45023 0.143356 -0.249421 3.0953 0.147586 2.49218 24.6434 -1.70363 -1.775 -8.59853 -1.10554 73.3199 -1.34362 -2.30806 112.376 36.1632 -47.3418 6.36111e-015 0 6.36111e-015 81.1035 83.3802 -81.5854 5.44313e-006 2.64703e-006 -3.0092 8.02894 -4.95146 0.6977 -65.3853 5.10536 -1.92419 -111.942 32.4787 33.4207 6.45927e-006 4.00383e-006 -5.66263e-007 -177.279 87.496 -176.916 1.28194e-005 2.72256e-007 3.00146 -8.02902 -4.95146 -0.697663 175.847 -2.38608 1.57659 180 7.01532e-015 178.86 175.969 6.09781 179.721 -5.27046e-007 -6.86403e-006 0.0607892 -18.0153 67.1501 18.8439 8.13649 25.2327 -3.48774 -175.001 -2.05874 0.0795793 4.54188e-006 -4.6773e-006 -1.24102 -3.23209 -11.1211 0.451319 1.26356e-006 7.58204e-007 -0.150619 18.5069 67.6653 -19.2456 -8.13649 25.2327 3.48774 
37.0846 98.7465 3.56943 0.698056 -4.76325 0.771073 -0.127877 -1.27425 0.0724986 -0.24495 1.45414 0.145206 -0.24688 3.09921 0.149394 2.49543 24.5956 -1.71966 -1.75081 -8.57224 -1.11671 73.3691 -1.34051 -2.31134 112.203 36.114 -46.9978 -9.54166e-015 -3.18055e-015 -3.18055e-015 83.3076 83.5532 -84.0358 5.44313e-006 2.64703e-006 -3.00919 8.02894 -4.95146 0.6977 -65.4101 5.12991 -1.93294 -111.793 32.4325 33.3104 6.45927e-006 4.00383e-006 -5.66263e-007 -178.247 87.386 -175.892 1.28194e-005 2.72256e-007 3.00146 -8.02902 -4.95146 -0.697663 175.85 -2.3917 1.58056 180 7.01532e-015 178.86 175.961 6.0981 179.722 -5.27046e-007 -6.86403e-006 0.060798 -18.0149 67.1496 18.8435 8.13649 25.2327 -3.48774 -174.993 -2.04849 0.0762516 4.54188e-006 -4.6773e-006 -1.24108 -3.23015 -11.1295 0.451267 1.26356e-006 7.58204e-007 -0.150501 18.5063 67.6645 -19.2453 -8.13649 25.2327 3.48774 
37.0806 98.7441 3.5641 0.696506 -4.76382 0.798653 -0.127259 -1.27251 0.0736918 -0.24242 1.45762 0.147045 -0.24437 3.10269 0.151192 2.50109 24.5487 -1.73701 -1.7299 -8.54546 -1.12888 73.4184 -1.3387 -2.31521 112.021 36.0577 -46.6438 -3.18055e-015 3.18055e-015 -0 85.7527 83.7237 -86.7398 5.44313e-006 2.64703e-006 -3.00919 8.02894 -4.95146 0.6977 -65.4334 5.1538 -1.9416 -111.639 32.3847 33.1941 6.45927e-006 4.00383e-006 -5.66263e-007 -179.141 87.2753 -174.942 1.28194e-005 2.72256e-007 3.00146 -8.02902 -4.95146 -0.697663 175.853 -2.39698 1.58445 180 7.01532e-015 178.86 175.954 6.0982 179.722 -5.27046e-007 -6.86403e-006 0.0608069 -18.0146 67.1492 18.8432 8.13649 25.2327 -3.48774 -174.986 -2.03757 0.073028 4.54188e-006 -4.6773e-006 -1.24114 -3.22816 -11.1376 0.451196 1.26356e-006 7.58204e-007 -0.150366 18.5057 67.6637 -19.2451 -8.13649 25.2327 3.48774 
37.0822 98.7417 3.56601 0.695005 -4.7636 0.826777 -0.126685 -1.27108 0.074823 -0.240047 1.46048 0.14881 -0.242016 3.10554 0.152919 2.51062 24.5038 -1.75606 -1.71376 -8.51908 -1.14214 73.4673 -1.33853 -2.31977 111.832 35.9947 -46.286 6.36111e-015 0 -6.36111e-015 88.4155 83.8866 -89.6697 5.44313e-006 2.64703e-006 -3.00919 8.02894 -4.95146 0.6977 -65.4547 5.17706 -1.95029 -111.482 32.337 33.0712 6.45927e-006 4.00383e-006 -5.66263e-007 -179.947 87.1663 -174.081 1.28194e-005 2.72256e-007 3.00145 -8.02902 -4.95146 -0.697663 175.856 -2.40172 1.58815 180 7.01532e-015 178.86 175.946 6.09804 179.723 -5.27046e-007 -6.86403e-006 0.0608157 -18.0144 67.1489 18.843 8.13649 25.2327 -3.48774 -174.978 -2.02588 0.0700236 4.54188e-006 -4.6773e-006 -1.24119 -3.22612 -11.1456 0.451115 1.26356e-006 7.58204e-007 -0.150218 18.5051 67.6629 -19.2448 -8.13649 25.2327 3.48774 
37.0774 98.7414 3.56994 0.693631 -4.76241 0.85535 -0.126201 -1.27006 0.0758497 -0.237954 1.46252 0.150441 -0.239941 3.10758 0.154515 2.52549 24.462 -1.77717 -1.70388 -8.49401 -1.15657 73.5152 -1.34033 -2.32511 111.636 35.9256 -45.9308 -6.36111e-015 -3.18055e-015 -0 91.2618 84.0378 -92.7869 5.44313e-006 2.64703e-006 -3.00919 8.02894 -4.95146 0.6977 -65.4733 5.1997 -1.9591 -111.328 32.2916 32.9411 6.45927e-006 4.00383e-006 -5.66263e-007 179.343 87.0614 -173.319 1.28194e-005 2.72256e-007 3.00145 -8.02902 -4.95146 -0.697663 175.859 -2.40568 1.5916 180 7.01532e-015 178.86 175.939 6.09768 179.724 -5.27046e-007 -6.86403e-006 0.0608246 -18.0144 67.1488 18.843 8.13649 25.2327 -3.48774 -174.971 -2.01331 0.0673536 4.54188e-006 -4.6773e-006 -1.24124 -3.22404 -11.1531 0.451032 1.26356e-006 7.58204e-007 -0.15006 18.5044 67.6621 -19.2445 -8.13649 25.2327 3.48774 
